HIERARCHY
ROOT hip
{
	OFFSET 0.000000 0.000000 0.000000
	CHANNELS 6 Xposition Yposition Zposition Xrotation Zrotation Yrotation 
	JOINT abdomen
	{
		OFFSET 0.000000 3.422050 0.000000
		CHANNELS 3 Xrotation Zrotation Yrotation 
		JOINT chest
		{
			OFFSET 0.000000 8.486693 -0.684411
			CHANNELS 3 Xrotation Zrotation Yrotation 
			JOINT neck
			{
				OFFSET 0.000000 10.266162 -0.273764
				CHANNELS 3 Xrotation Zrotation Yrotation 
				JOINT head
				{
					OFFSET 0.000000 3.148285 0.000000
					CHANNELS 3 Xrotation Zrotation Yrotation 
					End Site
					{
						OFFSET 0.000000 3.148289 0.000000
					}
				}
			}
			JOINT lCollar
			{
				OFFSET 3.422053 6.707223 -0.821293
				CHANNELS 3 Yrotation Zrotation Xrotation 
				JOINT lShldr
				{
					OFFSET 3.285171 0.000000 0.000000
					CHANNELS 3 Zrotation Yrotation Xrotation 
					JOINT lForeArm
					{
						OFFSET 10.129278 0.000000 0.000000
						CHANNELS 3 Yrotation Zrotation Xrotation 
						JOINT lHand
						{
							OFFSET 8.486692 0.000000 0.000000
							CHANNELS 3 Zrotation Yrotation Xrotation 
							End Site
							{
								OFFSET 4.106464 0.000000 0.000000
							}
						}
					}
				}
			}
			JOINT rCollar
			{
				OFFSET -3.558935 6.707223 -0.821293
				CHANNELS 3 Yrotation Zrotation Xrotation 
				JOINT rShldr
				{
					OFFSET -3.148289 0.000000 0.000000
					CHANNELS 3 Zrotation Yrotation Xrotation 
					JOINT rForeArm
					{
						OFFSET -10.266159 0.000000 0.000000
						CHANNELS 3 Yrotation Zrotation Xrotation 
						JOINT rHand
						{
							OFFSET -8.349810 0.000000 0.000000
							CHANNELS 3 Zrotation Yrotation Xrotation 
							End Site
							{
								OFFSET -4.106464 0.000000 0.000000
							}
						}
					}
				}
			}
		}
	}
	JOINT lThigh
	{
		OFFSET 5.338403 -1.642589 1.368821
		CHANNELS 3 Xrotation Zrotation Yrotation 
		JOINT lShin
		{
			OFFSET -2.053232 -20.121670 0.000000
			CHANNELS 3 Xrotation Zrotation Yrotation 
			JOINT lFoot
			{
				OFFSET 0.000000 -19.300380 -1.231939
				CHANNELS 3 Xrotation Yrotation Zrotation 
				End Site
				{
					OFFSET 0.000000 -2.463878 4.653993
				}
			}
		}
	}
	JOINT rThigh
	{
		OFFSET -5.338403 -1.642589 1.368821
		CHANNELS 3 Xrotation Zrotation Yrotation 
		JOINT rShin
		{
			OFFSET 2.053232 -20.121670 0.000000
			CHANNELS 3 Xrotation Zrotation Yrotation 
			JOINT rFoot
			{
				OFFSET 0.000000 -19.300380 -1.231939
				CHANNELS 3 Xrotation Yrotation Zrotation 
				End Site
				{
					OFFSET 0.000000 -2.463878 4.653993
				}
			}
		}
	}
}
MOTION
Frames: 6
Frame Time: 0.033264
0.000000 43.528500 0.000000 0.000000 0.000000 0.000000 0.000000 0.000000 0.000000 0.000000 0.000000 0.000000 0.000000 0.000000 0.000000 0.000000 0.000000 0.000000 0.000000 0.000000 0.000000 0.000000 0.000000 0.000000 0.000000 0.000000 0.000000 0.000000 0.000000 0.000000 0.000000 0.000000 0.000000 0.000000 0.000000 0.000000 0.000000 0.000000 0.000000 0.000000 0.000000 0.000000 0.000000 0.000000 0.000000 0.000000 0.000000 0.000000 0.000000 0.000000 0.000000 0.000000 0.000000 0.000000 0.000000 0.000000 0.000000 0.000000 0.000000 0.000000 
19.995884 40.461693 28.850920 104.995956 0.000001 -0.000001 11.345125 -1.365811 -1.163696 20.078587 0.090586 -3.310405 0.281510 0.000000 0.000000 0.106660 0.000000 0.000000 6.343886 -57.347191 39.828945 -32.893829 -9.519178 58.245007 -30.539082 13.770697 4.847326 43.960346 -4.086233 -8.564761 -10.518766 59.612431 43.007912 31.826733 8.473413 58.130074 20.223942 -13.096536 2.783482 -43.965286 4.061723 -8.615623 -104.056717 7.119312 0.112204 1.524677 -5.698232 0.286542 -2.108598 5.203295 2.821849 -103.340271 -6.621933 1.620654 -0.275221 4.747693 -0.433176 -1.126288 -7.037816 -2.443312 
19.995884 40.461693 28.797852 104.995956 0.000001 -0.000001 10.901018 -1.365694 -1.163746 18.427898 0.090584 -3.310565 0.366281 0.000000 0.000000 0.139020 0.000000 0.000000 7.699823 -56.596844 41.927505 -33.226608 -9.319146 58.362095 -32.300377 14.179439 5.273770 43.116814 -2.823737 -8.147827 -11.799091 58.314510 45.135296 32.257652 8.286445 58.267834 22.355963 -13.859842 3.277724 -42.882645 2.693098 -7.860178 -104.056717 7.119312 0.112204 1.524677 -5.698232 0.286542 -2.108598 5.203295 2.821849 -103.340271 -6.621933 1.620654 -0.275221 4.747693 -0.433176 -1.126288 -7.037817 -2.443312 
19.995884 40.461693 28.744785 104.995956 0.000001 -0.000001 10.456803 -1.365578 -1.163797 16.771622 0.090578 -3.310724 0.451060 0.000000 0.000000 0.171380 0.000000 0.000000 8.981763 -55.818764 43.956551 -33.558842 -9.118413 58.477943 -34.074749 14.576739 5.715479 42.280708 -1.551448 -7.748711 -12.947157 56.990768 47.137821 32.688030 8.098404 58.404137 24.515087 -14.609206 3.805943 -41.814411 1.304484 -7.128216 -104.056725 7.119313 0.112203 1.524677 -5.698232 0.286542 -2.108598 5.203296 2.821849 -103.340271 -6.621933 1.620654 -0.275221 4.747693 -0.433176 -1.126288 -7.037817 -2.443312 
19.995884 40.461693 28.691717 104.995956 0.000001 -0.000001 10.012493 -1.365462 -1.163849 15.110428 0.090566 -3.310884 0.535846 0.000000 0.000000 0.203740 0.000000 0.000000 10.191512 -55.014954 45.917870 -33.890533 -8.916986 58.592579 -35.861450 14.961852 6.172061 41.451603 -0.270113 -7.367359 -13.974842 55.644653 49.027374 33.117855 7.909313 58.538971 26.700560 -15.342572 4.367994 -40.760265 -0.102847 -6.419781 -104.056717 7.119312 0.112204 1.524677 -5.698232 0.286542 -2.108598 5.203296 2.821849 -103.340271 -6.621933 1.620654 -0.275221 4.747693 -0.433176 -1.126288 -7.037817 -2.443312 
19.995884 40.461693 28.638651 104.995956 0.000001 -0.000001 9.568109 -1.365347 -1.163902 13.444997 0.090550 -3.311043 0.620640 0.000000 0.000000 0.236101 0.000000 0.000000 11.331143 -54.187336 47.813526 -34.221676 -8.714876 58.705982 -37.659687 15.334043 6.643068 40.629055 1.019511 -7.003727 -14.892963 54.279293 50.814762 33.547127 7.719184 58.672344 28.911461 -16.057890 4.963565 -39.719810 -1.527603 -5.734891 -104.056709 7.119311 0.112204 1.524677 -5.698232 0.286542 -2.108598 5.203295 2.821849 -103.340279 -6.621932 1.620654 -0.275221 4.747693 -0.433176 -1.126288 -7.037815 -2.443311 
